REM DIRINDEX 1\2\4\18,1\2\4\19,1\2\5\20,1\2\5\21,1\2\6\22,1\2\7\23,1\2\8\24,1\2\8\25,1\2\9\26,1\2\10\27,1\3\11\28,1\3\11\29,1\3\11\30,1\3\11\31,1\3\12\32,1\3\12\33,1\3\12\34,1\3\12\35,1\3\13\36,1\3\13\37,1\3\14\38,1\3\14\39,1\3\15\40,1\3\15\41,1\3\15\42,1\3\16\43,1\3\16\44,1\3\17\45,1\3\17\46
REM DIRNAME folder01,folder02,folder03,folder04,folder05,folder06,folder07,folder08,folder09,folder10,folder11,folder12,folder13,folder14,folder15,folder16,folder17,folder18,folder19,folder20,folder21,folder22,folder23,folder24,folder25,folder26,folder27,folder28,folder29,folder30,folder31,folder32,folder33,folder34,folder35,folder36,folder37,folder38,folder39,folder40,folder41,folder42,folder43,folder44,folder45,folder46
TITLE ""
FILE "01.mp3" MP3
  TRACK 01 AUDIO
    TITLE "0:"
    INDEX 01 00:00:00
  TRACK 02 AUDIO
    TITLE "18:cjc023_0001"
    INDEX 01 00:00:13
  TRACK 03 AUDIO
    TITLE "0:"
    INDEX 01 00:01:26
  TRACK 04 AUDIO
    TITLE "19:cjc023_0002"
    INDEX 01 00:01:44
  TRACK 05 AUDIO
    TITLE "0:"
    INDEX 01 00:03:31
  TRACK 06 AUDIO
    TITLE "18:cjc023_0003"
    INDEX 01 00:04:40
  TRACK 07 AUDIO
    TITLE "0:"
    INDEX 01 00:05:50
  TRACK 08 AUDIO
    TITLE "19:cjc023_0004"
    INDEX 01 00:05:73
  TRACK 09 AUDIO
    TITLE "0:"
    INDEX 01 00:08:40
  TRACK 10 AUDIO
    TITLE "18:cjc023_0005"
    INDEX 01 00:09:40
  TRACK 11 AUDIO
    TITLE "0:"
    INDEX 01 00:10:53
  TRACK 12 AUDIO
    TITLE "19:cjc023_0006"
    INDEX 01 00:10:74
  TRACK 13 AUDIO
    TITLE "0:"
    INDEX 01 00:12:67
  TRACK 14 AUDIO
    TITLE "18:cjc023_0007"
    INDEX 01 00:13:69
  TRACK 15 AUDIO
    TITLE "0:"
    INDEX 01 00:15:11
  TRACK 16 AUDIO
    TITLE "19:cjc023_0008"
    INDEX 01 00:15:30
  TRACK 17 AUDIO
    TITLE "0:"
    INDEX 01 00:17:61
  TRACK 18 AUDIO
    TITLE "18:cjc023_0009"
    INDEX 01 00:18:60
  TRACK 19 AUDIO
    TITLE "0:"
    INDEX 01 00:20:02
  TRACK 20 AUDIO
    TITLE "19:cjc023_0010"
    INDEX 01 00:20:26
  TRACK 21 AUDIO
    TITLE "0:"
    INDEX 01 00:21:74
  TRACK 22 AUDIO
    TITLE "18:cjc023_0011"
    INDEX 01 00:23:01
  TRACK 23 AUDIO
    TITLE "0:"
    INDEX 01 00:24:20
  TRACK 24 AUDIO
    TITLE "19:cjc023_0012"
    INDEX 01 00:24:39
  TRACK 25 AUDIO
    TITLE "0:"
    INDEX 01 00:26:38
  TRACK 26 AUDIO
    TITLE "18:cjc023_0013"
    INDEX 01 00:27:39
  TRACK 27 AUDIO
    TITLE "0:"
    INDEX 01 00:29:05
  TRACK 28 AUDIO
    TITLE "19:cjc023_0014"
    INDEX 01 00:29:23
  TRACK 29 AUDIO
    TITLE "0:"
    INDEX 01 00:31:08
  TRACK 30 AUDIO
    TITLE "18:cjc023_0015"
    INDEX 01 00:32:05
  TRACK 31 AUDIO
    TITLE "0:"
    INDEX 01 00:33:17
  TRACK 32 AUDIO
    TITLE "19:cjc023_0016"
    INDEX 01 00:33:34
  TRACK 33 AUDIO
    TITLE "0:"
    INDEX 01 00:35:59
  TRACK 34 AUDIO
    TITLE "18:cjc023_0017"
    INDEX 01 00:36:56
  TRACK 35 AUDIO
    TITLE "0:"
    INDEX 01 00:37:57
  TRACK 36 AUDIO
    TITLE "19:cjc023_0018"
    INDEX 01 00:38:06
  TRACK 37 AUDIO
    TITLE "0:"
    INDEX 01 00:40:44
  TRACK 38 AUDIO
    TITLE "18:cjc023_0019"
    INDEX 01 00:41:40
  TRACK 39 AUDIO
    TITLE "0:"
    INDEX 01 00:42:53
  TRACK 40 AUDIO
    TITLE "19:cjc023_0020"
    INDEX 01 00:43:03
  TRACK 41 AUDIO
    TITLE "0:"
    INDEX 01 00:44:71
  TRACK 42 AUDIO
    TITLE "18:cjc023_0021"
    INDEX 01 00:45:67
  TRACK 43 AUDIO
    TITLE "0:"
    INDEX 01 00:47:05
  TRACK 44 AUDIO
    TITLE "19:cjc023_0022"
    INDEX 01 00:47:28
  TRACK 45 AUDIO
    TITLE "0:"
    INDEX 01 00:50:25
  TRACK 46 AUDIO
    TITLE "18:cjc023_0023"
    INDEX 01 00:51:22
  TRACK 47 AUDIO
    TITLE "0:"
    INDEX 01 00:52:28
  TRACK 48 AUDIO
    TITLE "19:cjc023_0024"
    INDEX 01 00:52:53
  TRACK 49 AUDIO
    TITLE "0:"
    INDEX 01 00:54:40
  TRACK 50 AUDIO
    TITLE "18:cjc023_0025"
    INDEX 01 00:55:38
  TRACK 51 AUDIO
    TITLE "0:"
    INDEX 01 00:56:53
  TRACK 52 AUDIO
    TITLE "19:cjc023_0026"
    INDEX 01 00:56:72
  TRACK 53 AUDIO
    TITLE "0:"
    INDEX 01 00:58:50
  TRACK 54 AUDIO
    TITLE "18:cjc023_0027"
    INDEX 01 00:59:43
  TRACK 55 AUDIO
    TITLE "0:"
    INDEX 01 01:00:49
  TRACK 56 AUDIO
    TITLE "19:cjc023_0028"
    INDEX 01 01:00:70
  TRACK 57 AUDIO
    TITLE "0:"
    INDEX 01 01:02:44
  TRACK 58 AUDIO
    TITLE "18:cjc023_0029"
    INDEX 01 01:03:45
  TRACK 59 AUDIO
    TITLE "0:"
    INDEX 01 01:04:74
  TRACK 60 AUDIO
    TITLE "19:cjc023_0030"
    INDEX 01 01:05:24
  TRACK 61 AUDIO
    TITLE "0:"
    INDEX 01 01:07:25
  TRACK 62 AUDIO
    TITLE "18:cjc023_0031"
    INDEX 01 01:08:21
  TRACK 63 AUDIO
    TITLE "0:"
    INDEX 01 01:09:18
  TRACK 64 AUDIO
    TITLE "19:cjc023_0032"
    INDEX 01 01:09:40
  TRACK 65 AUDIO
    TITLE "0:"
    INDEX 01 01:11:52
  TRACK 66 AUDIO
    TITLE "18:cjc023_0033"
    INDEX 01 01:12:48
  TRACK 67 AUDIO
    TITLE "0:"
    INDEX 01 01:13:67
  TRACK 68 AUDIO
    TITLE "19:cjc023_0034"
    INDEX 01 01:14:16
  TRACK 69 AUDIO
    TITLE "0:"
    INDEX 01 01:15:70
  TRACK 70 AUDIO
    TITLE "18:cjc023_0035"
    INDEX 01 01:16:67
  TRACK 71 AUDIO
    TITLE "0:"
    INDEX 01 01:18:06
  TRACK 72 AUDIO
    TITLE "19:cjc023_0036"
    INDEX 01 01:18:25
  TRACK 73 AUDIO
    TITLE "0:"
    INDEX 01 01:19:68
  TRACK 74 AUDIO
    TITLE "18:cjc023_0037"
    INDEX 01 01:20:69
  TRACK 75 AUDIO
    TITLE "0:"
    INDEX 01 01:22:03
  TRACK 76 AUDIO
    TITLE "19:cjc023_0038"
    INDEX 01 01:22:25
  TRACK 77 AUDIO
    TITLE "0:"
    INDEX 01 01:24:36
  TRACK 78 AUDIO
    TITLE "18:cjc023_0039"
    INDEX 01 01:25:31
  TRACK 79 AUDIO
    TITLE "0:"
    INDEX 01 01:26:44
  TRACK 80 AUDIO
    TITLE "19:cjc023_0040"
    INDEX 01 01:26:66
  TRACK 81 AUDIO
    TITLE "0:"
    INDEX 01 01:29:13
  TRACK 82 AUDIO
    TITLE "18:cjc023_0041"
    INDEX 01 01:30:07
  TRACK 83 AUDIO
    TITLE "0:"
    INDEX 01 01:31:22
  TRACK 84 AUDIO
    TITLE "19:cjc023_0042"
    INDEX 01 01:31:47
  TRACK 85 AUDIO
    TITLE "0:"
    INDEX 01 01:34:38
  TRACK 86 AUDIO
    TITLE "18:cjc023_0043"
    INDEX 01 01:35:33
  TRACK 87 AUDIO
    TITLE "0:"
    INDEX 01 01:36:60
  TRACK 88 AUDIO
    TITLE "19:cjc023_0044"
    INDEX 01 01:37:05
  TRACK 89 AUDIO
    TITLE "0:"
    INDEX 01 01:39:21
  TRACK 90 AUDIO
    TITLE "18:cjc023_0045"
    INDEX 01 01:40:19
  TRACK 91 AUDIO
    TITLE "0:"
    INDEX 01 01:41:32
  TRACK 92 AUDIO
    TITLE "19:cjc023_0046"
    INDEX 01 01:41:57
  TRACK 93 AUDIO
    TITLE "0:"
    INDEX 01 01:44:05
  TRACK 94 AUDIO
    TITLE "18:cjc023_0047"
    INDEX 01 01:45:02
  TRACK 95 AUDIO
    TITLE "0:"
    INDEX 01 01:46:16
  TRACK 96 AUDIO
    TITLE "19:cjc023_0048"
    INDEX 01 01:46:41
  TRACK 97 AUDIO
    TITLE "0:"
    INDEX 01 01:48:28
  TRACK 98 AUDIO
    TITLE "18:cjc023_0049"
    INDEX 01 01:49:24
  TRACK 99 AUDIO
    TITLE "0:"
    INDEX 01 01:50:43
  TRACK 100 AUDIO
    TITLE "19:cjc023_0050"
    INDEX 01 01:50:66
  TRACK 101 AUDIO
    TITLE "0:"
    INDEX 01 01:52:59
  TRACK 102 AUDIO
    TITLE "18:cjc023_0051"
    INDEX 01 01:53:55
  TRACK 103 AUDIO
    TITLE "0:"
    INDEX 01 01:54:74
  TRACK 104 AUDIO
    TITLE "19:cjc023_0052"
    INDEX 01 01:55:22
  TRACK 105 AUDIO
    TITLE "0:"
    INDEX 01 01:56:73
  TRACK 106 AUDIO
    TITLE "18:cjc023_0053"
    INDEX 01 01:58:03
  TRACK 107 AUDIO
    TITLE "0:"
    INDEX 01 01:59:22
  TRACK 108 AUDIO
    TITLE "19:cjc023_0054"
    INDEX 01 01:59:48
  TRACK 109 AUDIO
    TITLE "0:"
    INDEX 01 02:02:64
  TRACK 110 AUDIO
    TITLE "18:cjc023_0055"
    INDEX 01 02:03:61
  TRACK 111 AUDIO
    TITLE "0:"
    INDEX 01 02:05:01
  TRACK 112 AUDIO
    TITLE "19:cjc023_0056"
    INDEX 01 02:05:23
  TRACK 113 AUDIO
    TITLE "0:"
    INDEX 01 02:07:20
  TRACK 114 AUDIO
    TITLE "18:cjc023_0057"
    INDEX 01 02:08:19
  TRACK 115 AUDIO
    TITLE "0:"
    INDEX 01 02:09:38
  TRACK 116 AUDIO
    TITLE "19:cjc023_0058"
    INDEX 01 02:09:54
  TRACK 117 AUDIO
    TITLE "0:"
    INDEX 01 02:11:47
  TRACK 118 AUDIO
    TITLE "18:cjc023_0059"
    INDEX 01 02:12:42
  TRACK 119 AUDIO
    TITLE "0:"
    INDEX 01 02:13:59
  TRACK 120 AUDIO
    TITLE "19:cjc023_0060"
    INDEX 01 02:14:06
  TRACK 121 AUDIO
    TITLE "0:"
    INDEX 01 02:16:05
  TRACK 122 AUDIO
    TITLE "18:cjc023_0061"
    INDEX 01 02:17:04
  TRACK 123 AUDIO
    TITLE "0:"
    INDEX 01 02:18:27
  TRACK 124 AUDIO
    TITLE "19:cjc023_0062"
    INDEX 01 02:18:49
  TRACK 125 AUDIO
    TITLE "0:"
    INDEX 01 02:20:50
  TRACK 126 AUDIO
    TITLE "18:cjc023_0063"
    INDEX 01 02:21:47
  TRACK 127 AUDIO
    TITLE "0:"
    INDEX 01 02:22:70
  TRACK 128 AUDIO
    TITLE "19:cjc023_0064"
    INDEX 01 02:23:15
  TRACK 129 AUDIO
    TITLE "0:"
    INDEX 01 02:26:11
  TRACK 130 AUDIO
    TITLE "18:cjc023_0065"
    INDEX 01 02:27:11
  TRACK 131 AUDIO
    TITLE "0:"
    INDEX 01 02:28:20
  TRACK 132 AUDIO
    TITLE "19:cjc023_0066"
    INDEX 01 02:28:39
  TRACK 133 AUDIO
    TITLE "0:"
    INDEX 01 02:31:12
  TRACK 134 AUDIO
    TITLE "18:cjc023_0067"
    INDEX 01 02:32:08
  TRACK 135 AUDIO
    TITLE "0:"
    INDEX 01 02:33:41
  TRACK 136 AUDIO
    TITLE "19:cjc023_0068"
    INDEX 01 02:33:60
  TRACK 137 AUDIO
    TITLE "0:"
    INDEX 01 02:36:04
  TRACK 138 AUDIO
    TITLE "18:cjc023_0069"
    INDEX 01 02:37:05
  TRACK 139 AUDIO
    TITLE "0:"
    INDEX 01 02:38:14
  TRACK 140 AUDIO
    TITLE "19:cjc023_0070"
    INDEX 01 02:38:36
  TRACK 141 AUDIO
    TITLE "0:"
    INDEX 01 02:41:44
  TRACK 142 AUDIO
    TITLE "18:cjc023_0071"
    INDEX 01 02:42:38
  TRACK 143 AUDIO
    TITLE "0:"
    INDEX 01 02:43:59
  TRACK 144 AUDIO
    TITLE "19:cjc023_0072"
    INDEX 01 02:44:05
  TRACK 145 AUDIO
    TITLE "0:"
    INDEX 01 02:47:31
  TRACK 146 AUDIO
    TITLE "18:cjc023_0073"
    INDEX 01 02:48:28
  TRACK 147 AUDIO
    TITLE "0:"
    INDEX 01 02:49:32
  TRACK 148 AUDIO
    TITLE "19:cjc023_0074"
    INDEX 01 02:49:57
  TRACK 149 AUDIO
    TITLE "0:"
    INDEX 01 02:51:62
  TRACK 150 AUDIO
    TITLE "18:cjc023_0075"
    INDEX 01 02:52:58
  TRACK 151 AUDIO
    TITLE "0:"
    INDEX 01 02:53:65
  TRACK 152 AUDIO
    TITLE "19:cjc023_0076"
    INDEX 01 02:54:13
  TRACK 153 AUDIO
    TITLE "0:"
    INDEX 01 02:55:56
  TRACK 154 AUDIO
    TITLE "18:cjc023_0077"
    INDEX 01 02:56:49
  TRACK 155 AUDIO
    TITLE "0:"
    INDEX 01 02:57:74
  TRACK 156 AUDIO
    TITLE "19:cjc023_0078"
    INDEX 01 02:58:21
  TRACK 157 AUDIO
    TITLE "0:"
    INDEX 01 03:00:55
  TRACK 158 AUDIO
    TITLE "18:cjc023_0079"
    INDEX 01 03:01:53
  TRACK 159 AUDIO
    TITLE "0:"
    INDEX 01 03:02:62
  TRACK 160 AUDIO
    TITLE "19:cjc023_0080"
    INDEX 01 03:03:08
  TRACK 161 AUDIO
    TITLE "0:"
    INDEX 01 03:05:03
  TRACK 162 AUDIO
    TITLE "18:cjc023_0081"
    INDEX 01 03:05:72
  TRACK 163 AUDIO
    TITLE "0:"
    INDEX 01 03:07:04
  TRACK 164 AUDIO
    TITLE "19:cjc023_0082"
    INDEX 01 03:07:26
  TRACK 165 AUDIO
    TITLE "0:"
    INDEX 01 03:09:36
  TRACK 166 AUDIO
    TITLE "18:cjc023_0083"
    INDEX 01 03:10:34
  TRACK 167 AUDIO
    TITLE "0:"
    INDEX 01 03:11:41
  TRACK 168 AUDIO
    TITLE "19:cjc023_0084"
    INDEX 01 03:11:63
  TRACK 169 AUDIO
    TITLE "0:"
    INDEX 01 03:13:50
  TRACK 170 AUDIO
    TITLE "18:cjc023_0085"
    INDEX 01 03:14:42
  TRACK 171 AUDIO
    TITLE "0:"
    INDEX 01 03:16:01
  TRACK 172 AUDIO
    TITLE "19:cjc023_0086"
    INDEX 01 03:16:27
  TRACK 173 AUDIO
    TITLE "0:"
    INDEX 01 03:18:28
  TRACK 174 AUDIO
    TITLE "18:cjc023_0087"
    INDEX 01 03:19:29
  TRACK 175 AUDIO
    TITLE "0:"
    INDEX 01 03:20:44
  TRACK 176 AUDIO
    TITLE "19:cjc023_0088"
    INDEX 01 03:20:68
  TRACK 177 AUDIO
    TITLE "0:"
    INDEX 01 03:23:13
  TRACK 178 AUDIO
    TITLE "18:cjc023_0089"
    INDEX 01 03:24:11
  TRACK 179 AUDIO
    TITLE "0:"
    INDEX 01 03:25:33
  TRACK 180 AUDIO
    TITLE "19:cjc023_0090"
    INDEX 01 03:25:55
  TRACK 181 AUDIO
    TITLE "0:"
    INDEX 01 03:27:50
  TRACK 182 AUDIO
    TITLE "18:cjc023_0091"
    INDEX 01 03:28:46
  TRACK 183 AUDIO
    TITLE "0:"
    INDEX 01 03:29:70
  TRACK 184 AUDIO
    TITLE "19:cjc023_0092"
    INDEX 01 03:30:17
  TRACK 185 AUDIO
    TITLE "0:"
    INDEX 01 03:32:41
  TRACK 186 AUDIO
    TITLE "18:cjc023_0093"
    INDEX 01 03:33:39
  TRACK 187 AUDIO
    TITLE "0:"
    INDEX 01 03:34:50
  TRACK 188 AUDIO
    TITLE "19:cjc023_0094"
    INDEX 01 03:34:74
  TRACK 189 AUDIO
    TITLE "0:"
    INDEX 01 03:37:48
  TRACK 190 AUDIO
    TITLE "18:cjc023_0095"
    INDEX 01 03:38:48
  TRACK 191 AUDIO
    TITLE "0:"
    INDEX 01 03:39:67
  TRACK 192 AUDIO
    TITLE "19:cjc023_0096"
    INDEX 01 03:40:15
  TRACK 193 AUDIO
    TITLE "0:"
    INDEX 01 03:41:70
  TRACK 194 AUDIO
    TITLE "18:cjc023_0097"
    INDEX 01 03:42:69
  TRACK 195 AUDIO
    TITLE "0:"
    INDEX 01 03:44:09
  TRACK 196 AUDIO
    TITLE "19:cjc023_0098"
    INDEX 01 03:44:29
  TRACK 197 AUDIO
    TITLE "0:"
    INDEX 01 03:46:16
  TRACK 198 AUDIO
    TITLE "18:cjc023_0099"
    INDEX 01 03:47:15
  TRACK 199 AUDIO
    TITLE "0:"
    INDEX 01 03:48:31
  TRACK 200 AUDIO
    TITLE "19:cjc023_0100"
    INDEX 01 03:48:52
  TRACK 201 AUDIO
    TITLE "0:"
    INDEX 01 03:50:30
  TRACK 202 AUDIO
    TITLE "18:cjc023_0101"
    INDEX 01 03:51:33
  TRACK 203 AUDIO
    TITLE "0:"
    INDEX 01 03:52:50
  TRACK 204 AUDIO
    TITLE "19:cjc023_0102"
    INDEX 01 03:52:73
  TRACK 205 AUDIO
    TITLE "0:"
    INDEX 01 03:54:70
  TRACK 206 AUDIO
    TITLE "18:cjc023_0103"
    INDEX 01 03:55:68
  TRACK 207 AUDIO
    TITLE "0:"
    INDEX 01 03:57:02
  TRACK 208 AUDIO
    TITLE "19:cjc023_0104"
    INDEX 01 03:57:28
  TRACK 209 AUDIO
    TITLE "0:"
    INDEX 01 03:59:30
  TRACK 210 AUDIO
    TITLE "18:cjc023_0105"
    INDEX 01 04:00:28
  TRACK 211 AUDIO
    TITLE "0:"
    INDEX 01 04:01:37
  TRACK 212 AUDIO
    TITLE "19:cjc023_0106"
    INDEX 01 04:01:59
  TRACK 213 AUDIO
    TITLE "0:"
    INDEX 01 04:04:26
  TRACK 214 AUDIO
    TITLE "18:cjc023_0107"
    INDEX 01 04:05:35
  TRACK 215 AUDIO
    TITLE "0:"
    INDEX 01 04:06:50
  TRACK 216 AUDIO
    TITLE "19:cjc023_0108"
    INDEX 01 04:06:68
  TRACK 217 AUDIO
    TITLE "0:"
    INDEX 01 04:08:53
  TRACK 218 AUDIO
    TITLE "18:cjc023_0109"
    INDEX 01 04:09:50
  TRACK 219 AUDIO
    TITLE "0:"
    INDEX 01 04:10:60
  TRACK 220 AUDIO
    TITLE "19:cjc023_0110"
    INDEX 01 04:11:04
  TRACK 221 AUDIO
    TITLE "0:"
    INDEX 01 04:12:68
  TRACK 222 AUDIO
    TITLE "18:cjc023_0111"
    INDEX 01 04:13:62
  TRACK 223 AUDIO
    TITLE "0:"
    INDEX 01 04:14:63
  TRACK 224 AUDIO
    TITLE "19:cjc023_0112"
    INDEX 01 04:15:08
  TRACK 225 AUDIO
    TITLE "0:"
    INDEX 01 04:18:14
  TRACK 226 AUDIO
    TITLE "18:cjc023_0113"
    INDEX 01 04:19:14
  TRACK 227 AUDIO
    TITLE "0:"
    INDEX 01 04:20:25
  TRACK 228 AUDIO
    TITLE "19:cjc023_0114"
    INDEX 01 04:20:48
  TRACK 229 AUDIO
    TITLE "0:"
    INDEX 01 04:22:20
  TRACK 230 AUDIO
    TITLE "18:cjc023_0115"
    INDEX 01 04:23:17
  TRACK 231 AUDIO
    TITLE "0:"
    INDEX 01 04:24:46
  TRACK 232 AUDIO
    TITLE "19:cjc023_0116"
    INDEX 01 04:24:68
  TRACK 233 AUDIO
    TITLE "0:"
    INDEX 01 04:27:40
  TRACK 234 AUDIO
    TITLE "18:cjc023_0117"
    INDEX 01 04:28:36
  TRACK 235 AUDIO
    TITLE "0:"
    INDEX 01 04:29:49
  TRACK 236 AUDIO
    TITLE "19:cjc023_0118"
    INDEX 01 04:29:71
  TRACK 237 AUDIO
    TITLE "0:"
    INDEX 01 04:31:74
  TRACK 238 AUDIO
    TITLE "18:cjc023_0119"
    INDEX 01 04:32:67
  TRACK 239 AUDIO
    TITLE "0:"
    INDEX 01 04:34:11
  TRACK 240 AUDIO
    TITLE "19:cjc023_0120"
    INDEX 01 04:34:35
  TRACK 241 AUDIO
    TITLE "0:"
    INDEX 01 04:36:20
  TRACK 242 AUDIO
    TITLE "18:cjc023_0121"
    INDEX 01 04:37:15
  TRACK 243 AUDIO
    TITLE "0:"
    INDEX 01 04:38:27
  TRACK 244 AUDIO
    TITLE "19:cjc023_0122"
    INDEX 01 04:38:48
  TRACK 245 AUDIO
    TITLE "0:"
    INDEX 01 04:40:71
  TRACK 246 AUDIO
    TITLE "18:cjc023_0123"
    INDEX 01 04:41:68
  TRACK 247 AUDIO
    TITLE "0:"
    INDEX 01 04:43:10
  TRACK 248 AUDIO
    TITLE "19:cjc023_0124"
    INDEX 01 04:43:36
  TRACK 249 AUDIO
    TITLE "0:"
    INDEX 01 04:45:23
  TRACK 250 AUDIO
    TITLE "18:cjc023_0125"
    INDEX 01 04:46:22
  TRACK 251 AUDIO
    TITLE "0:"
    INDEX 01 04:47:53
  TRACK 252 AUDIO
    TITLE "19:cjc023_0126"
    INDEX 01 04:47:73
  TRACK 253 AUDIO
    TITLE "0:"
    INDEX 01 04:49:58
  TRACK 254 AUDIO
    TITLE "18:cjc023_0127"
    INDEX 01 04:50:55
  TRACK 255 AUDIO
    TITLE "0:"
    INDEX 01 04:51:61
  TRACK 256 AUDIO
    TITLE "19:cjc023_0128"
    INDEX 01 04:52:07
  TRACK 257 AUDIO
    TITLE "0:"
    INDEX 01 04:53:57
  TRACK 258 AUDIO
    TITLE "18:cjc023_0129"
    INDEX 01 04:54:55
  TRACK 259 AUDIO
    TITLE "0:"
    INDEX 01 04:56:13
  TRACK 260 AUDIO
    TITLE "19:cjc023_0130"
    INDEX 01 04:56:36
  TRACK 261 AUDIO
    TITLE "0:"
    INDEX 01 04:58:53
  TRACK 262 AUDIO
    TITLE "18:cjc023_0131"
    INDEX 01 04:59:52
  TRACK 263 AUDIO
    TITLE "0:"
    INDEX 01 05:00:71
  TRACK 264 AUDIO
    TITLE "19:cjc023_0132"
    INDEX 01 05:01:20
  TRACK 265 AUDIO
    TITLE "0:"
    INDEX 01 05:03:05
  TRACK 266 AUDIO
    TITLE "18:cjc023_0133"
    INDEX 01 05:04:02
  TRACK 267 AUDIO
    TITLE "0:"
    INDEX 01 05:05:21
  TRACK 268 AUDIO
    TITLE "19:cjc023_0134"
    INDEX 01 05:05:45
  TRACK 269 AUDIO
    TITLE "0:"
    INDEX 01 05:07:38
  TRACK 270 AUDIO
    TITLE "18:cjc023_0135"
    INDEX 01 05:08:37
  TRACK 271 AUDIO
    TITLE "0:"
    INDEX 01 05:09:41
  TRACK 272 AUDIO
    TITLE "19:cjc023_0136"
    INDEX 01 05:09:62
  TRACK 273 AUDIO
    TITLE "0:"
    INDEX 01 05:11:32
  TRACK 274 AUDIO
    TITLE "18:cjc023_0137"
    INDEX 01 05:12:29
  TRACK 275 AUDIO
    TITLE "0:"
    INDEX 01 05:13:45
  TRACK 276 AUDIO
    TITLE "19:cjc023_0138"
    INDEX 01 05:13:68
  TRACK 277 AUDIO
    TITLE "0:"
    INDEX 01 05:15:43
  TRACK 278 AUDIO
    TITLE "18:cjc023_0139"
    INDEX 01 05:16:45
  TRACK 279 AUDIO
    TITLE "0:"
    INDEX 01 05:17:62
  TRACK 280 AUDIO
    TITLE "19:cjc023_0140"
    INDEX 01 05:18:10
  TRACK 281 AUDIO
    TITLE "0:"
    INDEX 01 05:20:29
  TRACK 282 AUDIO
    TITLE "18:cjc023_0141"
    INDEX 01 05:21:30
  TRACK 283 AUDIO
    TITLE "0:"
    INDEX 01 05:22:51
  TRACK 284 AUDIO
    TITLE "19:cjc023_0142"
    INDEX 01 05:22:73
  TRACK 285 AUDIO
    TITLE "0:"
    INDEX 01 05:25:57
  TRACK 286 AUDIO
    TITLE "18:cjc023_0143"
    INDEX 01 05:26:55
  TRACK 287 AUDIO
    TITLE "0:"
    INDEX 01 05:27:68
  TRACK 288 AUDIO
    TITLE "19:cjc023_0144"
    INDEX 01 05:28:15
  TRACK 289 AUDIO
    TITLE "0:"
    INDEX 01 05:30:02
  TRACK 290 AUDIO
    TITLE "18:cjc023_0145"
    INDEX 01 05:30:74
  TRACK 291 AUDIO
    TITLE "0:"
    INDEX 01 05:32:44
  TRACK 292 AUDIO
    TITLE "19:cjc023_0146"
    INDEX 01 05:32:65
  TRACK 293 AUDIO
    TITLE "0:"
    INDEX 01 05:35:23
  TRACK 294 AUDIO
    TITLE "18:cjc023_0147"
    INDEX 01 05:36:20
  TRACK 295 AUDIO
    TITLE "0:"
    INDEX 01 05:37:23
  TRACK 296 AUDIO
    TITLE "19:cjc023_0148"
    INDEX 01 05:37:45
  TRACK 297 AUDIO
    TITLE "0:"
    INDEX 01 05:39:13
  TRACK 298 AUDIO
    TITLE "18:cjc023_0149"
    INDEX 01 05:40:10
  TRACK 299 AUDIO
    TITLE "0:"
    INDEX 01 05:41:41
  TRACK 300 AUDIO
    TITLE "19:cjc023_0150"
    INDEX 01 05:41:60
  TRACK 301 AUDIO
    TITLE "0:"
    INDEX 01 05:43:61
  TRACK 302 AUDIO
    TITLE "18:cjc023_0151"
    INDEX 01 05:44:53
  TRACK 303 AUDIO
    TITLE "0:"
    INDEX 01 05:46:11
  TRACK 304 AUDIO
    TITLE "19:cjc023_0152"
    INDEX 01 05:46:30
  TRACK 305 AUDIO
    TITLE "0:"
    INDEX 01 05:49:11
  TRACK 306 AUDIO
    TITLE "18:cjc023_0153"
    INDEX 01 05:50:08
  TRACK 307 AUDIO
    TITLE "0:"
    INDEX 01 05:51:22
  TRACK 308 AUDIO
    TITLE "19:cjc023_0154"
    INDEX 01 05:51:43
  TRACK 309 AUDIO
    TITLE "0:"
    INDEX 01 05:54:14
  TRACK 310 AUDIO
    TITLE "18:cjc023_0155"
    INDEX 01 05:55:14
  TRACK 311 AUDIO
    TITLE "0:"
    INDEX 01 05:56:23
  TRACK 312 AUDIO
    TITLE "19:cjc023_0156"
    INDEX 01 05:56:46
  TRACK 313 AUDIO
    TITLE "0:"
    INDEX 01 05:58:33
  TRACK 314 AUDIO
    TITLE "18:cjc023_0157"
    INDEX 01 05:59:31
  TRACK 315 AUDIO
    TITLE "0:"
    INDEX 01 06:00:44
  TRACK 316 AUDIO
    TITLE "19:cjc023_0158"
    INDEX 01 06:00:68
  TRACK 317 AUDIO
    TITLE "0:"
    INDEX 01 06:02:37
  TRACK 318 AUDIO
    TITLE "18:cjc023_0159"
    INDEX 01 06:03:37
  TRACK 319 AUDIO
    TITLE "0:"
    INDEX 01 06:04:63
  TRACK 320 AUDIO
    TITLE "19:cjc023_0160"
    INDEX 01 06:05:10
  TRACK 321 AUDIO
    TITLE "0:"
    INDEX 01 06:07:30
  TRACK 322 AUDIO
    TITLE "18:cjc023_0161"
    INDEX 01 06:08:26
  TRACK 323 AUDIO
    TITLE "0:"
    INDEX 01 06:09:41
  TRACK 324 AUDIO
    TITLE "19:cjc023_0162"
    INDEX 01 06:09:63
  TRACK 325 AUDIO
    TITLE "0:"
    INDEX 01 06:11:44
  TRACK 326 AUDIO
    TITLE "18:cjc023_0163"
    INDEX 01 06:12:43
  TRACK 327 AUDIO
    TITLE "0:"
    INDEX 01 06:13:55
  TRACK 328 AUDIO
    TITLE "19:cjc023_0164"
    INDEX 01 06:14:03
  TRACK 329 AUDIO
    TITLE "0:"
    INDEX 01 06:16:49
  TRACK 330 AUDIO
    TITLE "18:cjc023_0165"
    INDEX 01 06:17:48
  TRACK 331 AUDIO
    TITLE "0:"
    INDEX 01 06:18:69
  TRACK 332 AUDIO
    TITLE "19:cjc023_0166"
    INDEX 01 06:19:20
  TRACK 333 AUDIO
    TITLE "0:"
    INDEX 01 06:20:72
  TRACK 334 AUDIO
    TITLE "18:cjc023_0167"
    INDEX 01 06:21:68
  TRACK 335 AUDIO
    TITLE "0:"
    INDEX 01 06:23:02
  TRACK 336 AUDIO
    TITLE "19:cjc023_0168"
    INDEX 01 06:23:24
  TRACK 337 AUDIO
    TITLE "0:"
    INDEX 01 06:24:74
  TRACK 338 AUDIO
    TITLE "18:cjc023_0169"
    INDEX 01 06:25:71
  TRACK 339 AUDIO
    TITLE "0:"
    INDEX 01 06:27:02
  TRACK 340 AUDIO
    TITLE "19:cjc023_0170"
    INDEX 01 06:27:25
  TRACK 341 AUDIO
    TITLE "0:"
    INDEX 01 06:29:18
  TRACK 342 AUDIO
    TITLE "18:cjc023_0171"
    INDEX 01 06:30:14
  TRACK 343 AUDIO
    TITLE "0:"
    INDEX 01 06:31:35
  TRACK 344 AUDIO
    TITLE "19:cjc023_0172"
    INDEX 01 06:31:58
  TRACK 345 AUDIO
    TITLE "0:"
    INDEX 01 06:33:42
  TRACK 346 AUDIO
    TITLE "18:cjc023_0173"
    INDEX 01 06:34:37
  TRACK 347 AUDIO
    TITLE "0:"
    INDEX 01 06:35:52
  TRACK 348 AUDIO
    TITLE "19:cjc023_0174"
    INDEX 01 06:36:01
  TRACK 349 AUDIO
    TITLE "0:"
    INDEX 01 06:37:59
  TRACK 350 AUDIO
    TITLE "18:cjc023_0175"
    INDEX 01 06:38:56
  TRACK 351 AUDIO
    TITLE "0:"
    INDEX 01 06:40:10
  TRACK 352 AUDIO
    TITLE "19:cjc023_0176"
    INDEX 01 06:40:32
  TRACK 353 AUDIO
    TITLE "0:"
    INDEX 01 06:42:68
  TRACK 354 AUDIO
    TITLE "18:cjc023_0177"
    INDEX 01 06:43:65
  TRACK 355 AUDIO
    TITLE "0:"
    INDEX 01 06:45:15
  TRACK 356 AUDIO
    TITLE "19:cjc023_0178"
    INDEX 01 06:45:35
  TRACK 357 AUDIO
    TITLE "0:"
    INDEX 01 06:47:48
  TRACK 358 AUDIO
    TITLE "18:cjc023_0179"
    INDEX 01 06:48:45
  TRACK 359 AUDIO
    TITLE "0:"
    INDEX 01 06:49:52
  TRACK 360 AUDIO
    TITLE "19:cjc023_0180"
    INDEX 01 06:50:03
  TRACK 361 AUDIO
    TITLE "0:"
    INDEX 01 06:51:49
  TRACK 362 AUDIO
    TITLE "18:cjc023_0181"
    INDEX 01 06:52:49
  TRACK 363 AUDIO
    TITLE "0:"
    INDEX 01 06:53:58
  TRACK 364 AUDIO
    TITLE "19:cjc023_0182"
    INDEX 01 06:54:01
  TRACK 365 AUDIO
    TITLE "0:"
    INDEX 01 06:56:01
  TRACK 366 AUDIO
    TITLE "18:cjc023_0183"
    INDEX 01 06:57:01
  TRACK 367 AUDIO
    TITLE "0:"
    INDEX 01 06:58:16
  TRACK 368 AUDIO
    TITLE "19:cjc023_0184"
    INDEX 01 06:58:42
  TRACK 369 AUDIO
    TITLE "0:"
    INDEX 01 07:00:33
  TRACK 370 AUDIO
    TITLE "18:cjc023_0185"
    INDEX 01 07:01:28
  TRACK 371 AUDIO
    TITLE "0:"
    INDEX 01 07:02:43
  TRACK 372 AUDIO
    TITLE "19:cjc023_0186"
    INDEX 01 07:02:63
  TRACK 373 AUDIO
    TITLE "0:"
    INDEX 01 07:05:04
  TRACK 374 AUDIO
    TITLE "18:cjc023_0187"
    INDEX 01 07:05:73
  TRACK 375 AUDIO
    TITLE "0:"
    INDEX 01 07:07:07
  TRACK 376 AUDIO
    TITLE "19:cjc023_0188"
    INDEX 01 07:07:27
  TRACK 377 AUDIO
    TITLE "0:"
    INDEX 01 07:09:04
  TRACK 378 AUDIO
    TITLE "18:cjc023_0189"
    INDEX 01 07:10:00
  TRACK 379 AUDIO
    TITLE "0:"
    INDEX 01 07:11:05
  TRACK 380 AUDIO
    TITLE "19:cjc023_0190"
    INDEX 01 07:11:28
  TRACK 381 AUDIO
    TITLE "0:"
    INDEX 01 07:13:18
  TRACK 382 AUDIO
    TITLE "18:cjc023_0191"
    INDEX 01 07:14:13
  TRACK 383 AUDIO
    TITLE "0:"
    INDEX 01 07:15:32
  TRACK 384 AUDIO
    TITLE "19:cjc023_0192"
    INDEX 01 07:15:54
  TRACK 385 AUDIO
    TITLE "0:"
    INDEX 01 07:17:72
  TRACK 386 AUDIO
    TITLE "18:cjc023_0193"
    INDEX 01 07:18:64
  TRACK 387 AUDIO
    TITLE "0:"
    INDEX 01 07:19:69
  TRACK 388 AUDIO
    TITLE "19:cjc023_0194"
    INDEX 01 07:20:16
  TRACK 389 AUDIO
    TITLE "0:"
    INDEX 01 07:23:06
  TRACK 390 AUDIO
    TITLE "18:cjc023_0195"
    INDEX 01 07:24:04
  TRACK 391 AUDIO
    TITLE "0:"
    INDEX 01 07:25:05
  TRACK 392 AUDIO
    TITLE "19:cjc023_0196"
    INDEX 01 07:25:33
  TRACK 393 AUDIO
    TITLE "0:"
    INDEX 01 07:28:07
  TRACK 394 AUDIO
    TITLE "18:cjc023_0197"
    INDEX 01 07:29:07
  TRACK 395 AUDIO
    TITLE "0:"
    INDEX 01 07:30:36
  TRACK 396 AUDIO
    TITLE "19:cjc023_0198"
    INDEX 01 07:30:53
  TRACK 397 AUDIO
    TITLE "0:"
    INDEX 01 07:33:22
  TRACK 398 AUDIO
    TITLE "18:cjc023_0199"
    INDEX 01 07:34:18
  TRACK 399 AUDIO
    TITLE "0:"
    INDEX 01 07:35:43
  TRACK 400 AUDIO
    TITLE "19:cjc023_0200"
    INDEX 01 07:35:62
  TRACK 401 AUDIO
    TITLE "0:"
    INDEX 01 07:37:47
